<?xml version="1.0" standalone="no"?><!DOCTYPE svg PUBLIC "-//W3C//DTD SVG 1.1//EN" "http://www.w3.org/Graphics/SVG/1.1/DTD/svg11.dtd"><svg t="1778134349908" class="icon" viewBox="0 0 1024 1024" version="1.1" xmlns="http://www.w3.org/2000/svg" p-id="18414" xmlns:xlink="http://www.w3.org/1999/xlink" width="200" height="200"><path d="M563.029333 90.154667l-143.018666 139.093333a32.085333 31.957333 0 0 0 0 45.866667l114.005333 111.061333 44.8-45.824-90.538667-88.021333 97.28-94.762667 92.373334 90.154667 44.8-45.866667-114.901334-111.701333a32.085333 31.957333 0 0 0-44.8 0z m317.269334 265.557333l-46.08 44.330667c76.458667 78.677333 102.272 162.56 96.128 242.474666-6.186667 79.872-45.781333 156.416-105.386667 214.186667-59.52 57.770667-138.410667 96.426667-221.141333 102.144-82.773333 5.717333-169.728-20.138667-250.538667-95.104l-43.52 46.805333c92.458667 85.76 198.741333 118.869333 298.368 112 99.626667-6.869333 192.042667-52.48 261.632-120.021333 69.632-67.498667 116.992-157.610667 124.501333-255.104 7.552-97.450667-26.368-201.514667-113.962666-291.712zM181.546667 461.568l-143.36 139.392a32.085333 31.957333 0 0 0 0 45.568l111.232 108.288 44.8-45.824-87.765334-85.248 97.322667-94.762667 89.6 87.04 44.8-45.525333-111.829333-108.928a32.085333 31.957333 0 0 0-44.8 0z m555.733333 33.877333l-48.213333 42.154667a128.64 128.64 0 0 1-6.826667 179.370667c-51.2 49.834667-132.906667 51.669333-186.538667 6.186666l-41.728 48.597334c78.805333 66.858667 198.144 63.701333 273.066667-9.216a193.365333 193.365333 0 0 0 10.24-267.093334zM142.933333 0.64a32.042667 31.957333 0 0 0-32.128 32v229.845333a32.085333 31.957333 0 0 0 46.037334 28.586667L245.76 248.064v178.773333a32.042667 31.957333 0 0 0 31.786667 31.701334 32.042667 31.957333 0 0 0 32.128-31.701334V196.949333a32.085333 31.957333 0 0 0-45.994667-28.928L174.72 211.413333V32.64a32.042667 31.957333 0 0 0-31.786667-32z" fill="#000000" opacity=".5" p-id="18415"></path><path d="M906.538667 131.413333L74.965333 931.413333l44.458667 45.866667L951.338667 177.237333z" fill="#000000" p-id="18416"></path></svg>