<?xml version="1.0" standalone="no"?><!DOCTYPE svg PUBLIC "-//W3C//DTD SVG 1.1//EN" "http://www.w3.org/Graphics/SVG/1.1/DTD/svg11.dtd"><svg t="1778134361089" class="icon" viewBox="0 0 1024 1024" version="1.1" xmlns="http://www.w3.org/2000/svg" p-id="20246" xmlns:xlink="http://www.w3.org/1999/xlink" width="200" height="200"><path d="M563.029333 90.197333l-143.018666 139.093334a32.085333 31.957333 0 0 0 0 45.824l262.272 255.402666c53.461333 52.053333 53.461333 134.4 0 186.453334a139.690667 139.690667 0 0 1-193.706667 0l-262.229333-255.402667a32.085333 31.957333 0 0 0-44.8 0l-143.36 139.392a32.085333 31.957333 0 0 0 0 45.568l262.570666 255.402667c93.269333 90.666667 201.472 126.72 303.061334 120.917333 101.546667-5.845333 195.882667-52.138667 266.581333-120.917333 70.698667-68.821333 118.186667-160.853333 124.16-260.352 5.973333-99.413333-30.933333-205.312-124.16-296.021334l-206.08-200.32-56.490667-55.04a32.085333 31.957333 0 0 0-44.8 0z m22.570667 67.370667l33.962667 33.237333 205.738666 200.32c81.749333 79.530667 110.250667 165.034667 105.344 246.485334-4.906667 81.408-44.544 159.872-105.045333 218.752-60.501333 58.88-141.184 97.664-225.493333 102.485333-84.309333 4.821333-172.8-22.912-254.549334-102.485333L106.453333 623.786667l97.322667-94.762667 240.042667 233.557333c78.208 76.117333 205.013333 76.117333 283.264 0a193.749333 193.749333 0 0 0 0-277.888l-238.805334-232.32z" fill="#000000" p-id="20247"></path><path d="M142.933333 0.64a32.042667 31.957333 0 0 0-32.128 32v229.845333a32.085333 31.957333 0 0 0 46.037334 28.586667L245.76 248.064v178.773333a32.042667 31.957333 0 0 0 31.786667 31.701334 32.042667 31.957333 0 0 0 32.128-31.701334V196.949333a32.085333 31.957333 0 0 0-45.994667-28.928L174.762667 211.413333V32.64a32.042667 31.957333 0 0 0-31.829334-32zM563.029333 90.197333l-143.018666 139.093334a32.085333 31.957333 0 0 0 0 45.824l143.36 139.392a32.085333 31.957333 0 0 0 44.8-0.298667l142.976-139.093333a32.085333 31.957333 0 0 0 0-45.866667l-143.36-139.093333a32.085333 31.957333 0 0 0-44.757334 0z m22.570667 67.370667l97.28 94.762667-97.28 94.464-97.28-94.464z m-404.053333 304L38.528 600.96a32.085333 31.957333 0 0 0 0 45.568l143.018667 139.392a32.085333 31.957333 0 0 0 44.8 0l143.018666-139.392a32.085333 31.957333 0 0 0 0-45.568l-143.018666-139.392a32.085333 31.957333 0 0 0-44.8 0z m22.229333 67.413333l97.28 94.762667-97.28 94.762667-96.981333-94.762667z" fill="#000000" p-id="20248"></path></svg>